<mxfile host="drawio-plugin" modified="2022-06-27T19:22:05.443Z" agent="5.0 (Macintosh; Intel Mac OS X 10_15_7) AppleWebKit/537.36 (KHTML, like Gecko) Chrome/97.0.4692.45 Safari/537.36" etag="xXo32LT_y2ifNzL6AWC6" version="15.5.4" type="embed" pages="2"><diagram name="Simplified" id="kQt_z-IHAU4Y2tA9KAhT"><mxGraphModel dx="1805" dy="841" grid="1" gridSize="10" guides="1" tooltips="1" connect="1" arrows="1" fold="1" page="1" pageScale="1" pageWidth="1169" pageHeight="827" math="1" shadow="0"><root><mxCell id="B_8IzSe85N2JA3LNc8zA-0"/><mxCell id="B_8IzSe85N2JA3LNc8zA-1" parent="B_8IzSe85N2JA3LNc8zA-0"/><mxCell id="B_8IzSe85N2JA3LNc8zA-2" value="Judging agent 1" style="shape=umlFrame;whiteSpace=wrap;html=1;labelBackgroundColor=none;fontSize=14;fontColor=#ffffff;fillColor=#647687;strokeColor=#314354;width=130;height=30;" vertex="1" parent="B_8IzSe85N2JA3LNc8zA-1"><mxGeometry x="60" y="50" width="560" height="140" as="geometry"/></mxCell><mxCell id="B_8IzSe85N2JA3LNc8zA-3" style="edgeStyle=none;rounded=0;orthogonalLoop=1;jettySize=auto;html=1;labelBackgroundColor=#CCCCCC;fontSize=14;fontColor=#0080FF;strokeColor=#006EAF;strokeWidth=2;fillColor=#1ba1e2;" edge="1" parent="B_8IzSe85N2JA3LNc8zA-1" source="B_8IzSe85N2JA3LNc8zA-4" target="B_8IzSe85N2JA3LNc8zA-12"><mxGeometry relative="1" as="geometry"/></mxCell><mxCell id="B_8IzSe85N2JA3LNc8zA-4" value="Argumentation graph" style="shape=umlFrame;whiteSpace=wrap;html=1;labelBackgroundColor=none;fontSize=14;fontColor=#ffffff;fillColor=#647687;strokeColor=#314354;dashed=1;width=160;height=15;" vertex="1" parent="B_8IzSe85N2JA3LNc8zA-1"><mxGeometry x="70" y="90" width="160" height="80" as="geometry"/></mxCell><mxCell id="B_8IzSe85N2JA3LNc8zA-5" style="edgeStyle=none;rounded=0;orthogonalLoop=1;jettySize=auto;html=1;labelBackgroundColor=#CCCCCC;fontSize=10;fontColor=#0080FF;strokeColor=#314354;strokeWidth=2;fillColor=#647687;" edge="1" parent="B_8IzSe85N2JA3LNc8zA-1" source="B_8IzSe85N2JA3LNc8zA-6" target="B_8IzSe85N2JA3LNc8zA-8"><mxGeometry relative="1" as="geometry"/></mxCell><mxCell id="B_8IzSe85N2JA3LNc8zA-6" value="Argument" style="ellipse;whiteSpace=wrap;html=1;labelBackgroundColor=none;fontSize=10;fontColor=#ffffff;fillColor=#647687;strokeColor=#314354;" vertex="1" parent="B_8IzSe85N2JA3LNc8zA-1"><mxGeometry x="90" y="110" width="50" height="20" as="geometry"/></mxCell><mxCell id="B_8IzSe85N2JA3LNc8zA-7" style="edgeStyle=none;rounded=0;orthogonalLoop=1;jettySize=auto;html=1;labelBackgroundColor=#CCCCCC;fontSize=10;fontColor=#0080FF;strokeColor=#314354;strokeWidth=2;fillColor=#647687;" edge="1" parent="B_8IzSe85N2JA3LNc8zA-1" source="B_8IzSe85N2JA3LNc8zA-8" target="B_8IzSe85N2JA3LNc8zA-10"><mxGeometry relative="1" as="geometry"/></mxCell><mxCell id="B_8IzSe85N2JA3LNc8zA-8" value="Argument" style="ellipse;whiteSpace=wrap;html=1;labelBackgroundColor=none;fontSize=10;fontColor=#ffffff;fillColor=#869EB5;strokeColor=#314354;gradientColor=none;gradientDirection=radial;" vertex="1" parent="B_8IzSe85N2JA3LNc8zA-1"><mxGeometry x="120" y="140" width="50" height="20" as="geometry"/></mxCell><mxCell id="B_8IzSe85N2JA3LNc8zA-9" style="edgeStyle=none;rounded=0;orthogonalLoop=1;jettySize=auto;html=1;labelBackgroundColor=#CCCCCC;fontSize=10;fontColor=#0080FF;strokeColor=#314354;strokeWidth=2;fillColor=#647687;" edge="1" parent="B_8IzSe85N2JA3LNc8zA-1" source="B_8IzSe85N2JA3LNc8zA-10" target="B_8IzSe85N2JA3LNc8zA-6"><mxGeometry relative="1" as="geometry"/></mxCell><mxCell id="B_8IzSe85N2JA3LNc8zA-10" value="Argument" style="ellipse;whiteSpace=wrap;html=1;labelBackgroundColor=none;fontSize=10;fontColor=#ffffff;fillColor=#647687;strokeColor=#314354;" vertex="1" parent="B_8IzSe85N2JA3LNc8zA-1"><mxGeometry x="160" y="110" width="50" height="20" as="geometry"/></mxCell><mxCell id="B_8IzSe85N2JA3LNc8zA-11" style="edgeStyle=none;rounded=0;orthogonalLoop=1;jettySize=auto;html=1;labelBackgroundColor=#CCCCCC;fontSize=14;fontColor=#0080FF;strokeColor=#0080FF;strokeWidth=2;" edge="1" parent="B_8IzSe85N2JA3LNc8zA-1" source="B_8IzSe85N2JA3LNc8zA-12" target="B_8IzSe85N2JA3LNc8zA-14"><mxGeometry relative="1" as="geometry"/></mxCell><mxCell id="B_8IzSe85N2JA3LNc8zA-12" value="\(\epsilon_1\)" style="rounded=0;whiteSpace=wrap;html=1;labelBackgroundColor=none;fontSize=14;fontColor=#ffffff;fillColor=#647687;strokeColor=#314354;" vertex="1" parent="B_8IzSe85N2JA3LNc8zA-1"><mxGeometry x="253" y="115" width="30" height="30" as="geometry"/></mxCell><mxCell id="B_8IzSe85N2JA3LNc8zA-13" style="edgeStyle=orthogonalEdgeStyle;rounded=1;orthogonalLoop=1;jettySize=auto;html=1;entryX=0;entryY=0.5;entryDx=0;entryDy=0;labelBackgroundColor=#CCCCCC;fontSize=14;fontColor=#49315E;strokeColor=#0080FF;strokeWidth=2;" edge="1" parent="B_8IzSe85N2JA3LNc8zA-1" source="B_8IzSe85N2JA3LNc8zA-14" target="B_8IzSe85N2JA3LNc8zA-43"><mxGeometry relative="1" as="geometry"/></mxCell><mxCell id="B_8IzSe85N2JA3LNc8zA-14" value="Filtered graph" style="shape=umlFrame;whiteSpace=wrap;html=1;labelBackgroundColor=none;fontSize=14;fontColor=#ffffff;fillColor=#647687;strokeColor=#314354;dashed=1;width=113;height=15;" vertex="1" parent="B_8IzSe85N2JA3LNc8zA-1"><mxGeometry x="307" y="90" width="123" height="80" as="geometry"/></mxCell><mxCell id="B_8IzSe85N2JA3LNc8zA-15" value="Argument" style="ellipse;whiteSpace=wrap;html=1;labelBackgroundColor=none;fontSize=10;fontColor=#ffffff;fillColor=#647687;strokeColor=#314354;" vertex="1" parent="B_8IzSe85N2JA3LNc8zA-1"><mxGeometry x="310" y="115" width="50" height="20" as="geometry"/></mxCell><mxCell id="B_8IzSe85N2JA3LNc8zA-16" style="edgeStyle=none;rounded=0;orthogonalLoop=1;jettySize=auto;html=1;labelBackgroundColor=#CCCCCC;fontSize=10;fontColor=#0080FF;strokeColor=#314354;strokeWidth=2;fillColor=#647687;" edge="1" parent="B_8IzSe85N2JA3LNc8zA-1" source="B_8IzSe85N2JA3LNc8zA-17" target="B_8IzSe85N2JA3LNc8zA-15"><mxGeometry relative="1" as="geometry"/></mxCell><mxCell id="B_8IzSe85N2JA3LNc8zA-17" value="Argument" style="ellipse;whiteSpace=wrap;html=1;labelBackgroundColor=none;fontSize=10;fontColor=#ffffff;fillColor=#647687;strokeColor=#314354;" vertex="1" parent="B_8IzSe85N2JA3LNc8zA-1"><mxGeometry x="375" y="115" width="50" height="20" as="geometry"/></mxCell><mxCell id="B_8IzSe85N2JA3LNc8zA-18" style="edgeStyle=none;rounded=0;orthogonalLoop=1;jettySize=auto;html=1;entryX=0;entryY=0.25;entryDx=0;entryDy=0;labelBackgroundColor=#CCCCCC;fontSize=14;fontColor=#0080FF;strokeColor=#0080FF;strokeWidth=2;" edge="1" parent="B_8IzSe85N2JA3LNc8zA-1" source="B_8IzSe85N2JA3LNc8zA-19" target="B_8IzSe85N2JA3LNc8zA-36"><mxGeometry relative="1" as="geometry"/></mxCell><mxCell id="B_8IzSe85N2JA3LNc8zA-19" value="\(\mathtt{J}_1\)" style="rounded=0;whiteSpace=wrap;html=1;labelBackgroundColor=none;sketch=0;fontSize=14;fontColor=#ffffff;fillColor=#647687;gradientDirection=radial;strokeColor=#314354;" vertex="1" parent="B_8IzSe85N2JA3LNc8zA-1"><mxGeometry x="560" y="110" width="40" height="40" as="geometry"/></mxCell><mxCell id="B_8IzSe85N2JA3LNc8zA-20" value="Judging agent j" style="shape=umlFrame;whiteSpace=wrap;html=1;labelBackgroundColor=none;fontSize=14;fontColor=#ffffff;fillColor=#647687;strokeColor=#314354;width=130;height=30;" vertex="1" parent="B_8IzSe85N2JA3LNc8zA-1"><mxGeometry x="60" y="230" width="560" height="140" as="geometry"/></mxCell><mxCell id="B_8IzSe85N2JA3LNc8zA-21" style="edgeStyle=none;rounded=0;orthogonalLoop=1;jettySize=auto;html=1;labelBackgroundColor=#CCCCCC;fontSize=14;fontColor=#0080FF;strokeColor=#006EAF;strokeWidth=2;fillColor=#1ba1e2;" edge="1" parent="B_8IzSe85N2JA3LNc8zA-1" source="B_8IzSe85N2JA3LNc8zA-22" target="B_8IzSe85N2JA3LNc8zA-29"><mxGeometry relative="1" as="geometry"/></mxCell><mxCell id="B_8IzSe85N2JA3LNc8zA-22" value="Argumentation graph" style="shape=umlFrame;whiteSpace=wrap;html=1;labelBackgroundColor=none;fontSize=14;fontColor=#ffffff;fillColor=#647687;strokeColor=#314354;dashed=1;width=160;height=15;" vertex="1" parent="B_8IzSe85N2JA3LNc8zA-1"><mxGeometry x="70" y="270" width="160" height="80" as="geometry"/></mxCell><mxCell id="B_8IzSe85N2JA3LNc8zA-23" style="edgeStyle=none;rounded=0;orthogonalLoop=1;jettySize=auto;html=1;labelBackgroundColor=#CCCCCC;fontSize=10;fontColor=#0080FF;strokeColor=#314354;strokeWidth=2;fillColor=#647687;" edge="1" parent="B_8IzSe85N2JA3LNc8zA-1" source="B_8IzSe85N2JA3LNc8zA-24" target="B_8IzSe85N2JA3LNc8zA-25"><mxGeometry relative="1" as="geometry"/></mxCell><mxCell id="B_8IzSe85N2JA3LNc8zA-24" value="Argument" style="ellipse;whiteSpace=wrap;html=1;labelBackgroundColor=none;fontSize=10;fontColor=#ffffff;fillColor=#869EB5;strokeColor=#314354;" vertex="1" parent="B_8IzSe85N2JA3LNc8zA-1"><mxGeometry x="90" y="290" width="50" height="20" as="geometry"/></mxCell><mxCell id="B_8IzSe85N2JA3LNc8zA-25" value="Argument" style="ellipse;whiteSpace=wrap;html=1;labelBackgroundColor=none;fontSize=10;fontColor=#ffffff;fillColor=#647687;strokeColor=#314354;gradientDirection=radial;" vertex="1" parent="B_8IzSe85N2JA3LNc8zA-1"><mxGeometry x="120" y="320" width="50" height="20" as="geometry"/></mxCell><mxCell id="B_8IzSe85N2JA3LNc8zA-26" style="edgeStyle=none;rounded=0;orthogonalLoop=1;jettySize=auto;html=1;labelBackgroundColor=#CCCCCC;fontSize=14;fontColor=#0080FF;strokeColor=#314354;strokeWidth=2;fillColor=#647687;" edge="1" parent="B_8IzSe85N2JA3LNc8zA-1" source="B_8IzSe85N2JA3LNc8zA-27" target="B_8IzSe85N2JA3LNc8zA-25"><mxGeometry relative="1" as="geometry"/></mxCell><mxCell id="B_8IzSe85N2JA3LNc8zA-27" value="Argument" style="ellipse;whiteSpace=wrap;html=1;labelBackgroundColor=none;fontSize=10;fontColor=#ffffff;fillColor=#869EB5;strokeColor=#314354;" vertex="1" parent="B_8IzSe85N2JA3LNc8zA-1"><mxGeometry x="160" y="290" width="50" height="20" as="geometry"/></mxCell><mxCell id="B_8IzSe85N2JA3LNc8zA-28" style="edgeStyle=none;rounded=0;orthogonalLoop=1;jettySize=auto;html=1;labelBackgroundColor=#CCCCCC;fontSize=14;fontColor=#0080FF;strokeColor=#0080FF;strokeWidth=2;" edge="1" parent="B_8IzSe85N2JA3LNc8zA-1" source="B_8IzSe85N2JA3LNc8zA-29" target="B_8IzSe85N2JA3LNc8zA-31"><mxGeometry relative="1" as="geometry"/></mxCell><mxCell id="B_8IzSe85N2JA3LNc8zA-29" value="\(\epsilon_j\)" style="rounded=0;whiteSpace=wrap;html=1;labelBackgroundColor=none;fontSize=14;fontColor=#ffffff;fillColor=#647687;strokeColor=#314354;" vertex="1" parent="B_8IzSe85N2JA3LNc8zA-1"><mxGeometry x="253" y="295" width="30" height="30" as="geometry"/></mxCell><mxCell id="B_8IzSe85N2JA3LNc8zA-30" style="edgeStyle=orthogonalEdgeStyle;rounded=1;orthogonalLoop=1;jettySize=auto;html=1;labelBackgroundColor=#CCCCCC;fontSize=14;fontColor=#49315E;strokeColor=#0080FF;strokeWidth=2;" edge="1" parent="B_8IzSe85N2JA3LNc8zA-1" source="B_8IzSe85N2JA3LNc8zA-31" target="B_8IzSe85N2JA3LNc8zA-41"><mxGeometry relative="1" as="geometry"/></mxCell><mxCell id="B_8IzSe85N2JA3LNc8zA-31" value="Filtered graph" style="shape=umlFrame;whiteSpace=wrap;html=1;labelBackgroundColor=none;fontSize=14;fontColor=#ffffff;fillColor=#647687;strokeColor=#314354;dashed=1;width=110;height=15;" vertex="1" parent="B_8IzSe85N2JA3LNc8zA-1"><mxGeometry x="307" y="270" width="120" height="80" as="geometry"/></mxCell><mxCell id="B_8IzSe85N2JA3LNc8zA-32" value="Argument" style="ellipse;whiteSpace=wrap;html=1;labelBackgroundColor=none;fontSize=10;fontColor=#ffffff;fillColor=#647687;strokeColor=#314354;" vertex="1" parent="B_8IzSe85N2JA3LNc8zA-1"><mxGeometry x="342" y="320" width="50" height="20" as="geometry"/></mxCell><mxCell id="B_8IzSe85N2JA3LNc8zA-33" style="edgeStyle=none;rounded=0;orthogonalLoop=1;jettySize=auto;html=1;entryX=0;entryY=0.75;entryDx=0;entryDy=0;labelBackgroundColor=#CCCCCC;fontSize=14;fontColor=#0080FF;strokeColor=#0080FF;strokeWidth=2;" edge="1" parent="B_8IzSe85N2JA3LNc8zA-1" source="B_8IzSe85N2JA3LNc8zA-34" target="B_8IzSe85N2JA3LNc8zA-36"><mxGeometry relative="1" as="geometry"/></mxCell><mxCell id="B_8IzSe85N2JA3LNc8zA-34" value="\(\mathtt{J}_j\)" style="rounded=0;whiteSpace=wrap;html=1;labelBackgroundColor=none;sketch=0;fontSize=14;fontColor=#ffffff;fillColor=#647687;gradientDirection=radial;strokeColor=#314354;" vertex="1" parent="B_8IzSe85N2JA3LNc8zA-1"><mxGeometry x="560" y="290" width="40" height="40" as="geometry"/></mxCell><mxCell id="B_8IzSe85N2JA3LNc8zA-35" value="Reward &lt;br&gt;\(r_l \in \mathbb{R}\)" style="edgeStyle=none;rounded=0;orthogonalLoop=1;jettySize=auto;html=1;labelBackgroundColor=#CCCCCC;fontSize=14;fontColor=#0080FF;strokeColor=#0080FF;strokeWidth=2;" edge="1" parent="B_8IzSe85N2JA3LNc8zA-1" source="B_8IzSe85N2JA3LNc8zA-36"><mxGeometry y="30" relative="1" as="geometry"><mxPoint x="810" y="210" as="targetPoint"/><mxPoint as="offset"/></mxGeometry></mxCell><mxCell id="B_8IzSe85N2JA3LNc8zA-36" value="\(\mathtt{g}_{agr}\)" style="rounded=0;whiteSpace=wrap;html=1;labelBackgroundColor=none;sketch=0;fontSize=14;fontColor=#ffffff;fillColor=#647687;gradientDirection=radial;strokeColor=#314354;" vertex="1" parent="B_8IzSe85N2JA3LNc8zA-1"><mxGeometry x="640" y="180" width="70" height="60" as="geometry"/></mxCell><mxCell id="B_8IzSe85N2JA3LNc8zA-37" style="edgeStyle=orthogonalEdgeStyle;rounded=1;orthogonalLoop=1;jettySize=auto;html=1;exitX=1;exitY=0.5;exitDx=0;exitDy=0;labelBackgroundColor=#CCCCCC;fontSize=14;fontColor=#0080FF;strokeColor=#3700CC;strokeWidth=2;fillColor=#6a00ff;entryX=0.5;entryY=1;entryDx=0;entryDy=0;" edge="1" parent="B_8IzSe85N2JA3LNc8zA-1" source="B_8IzSe85N2JA3LNc8zA-39" target="B_8IzSe85N2JA3LNc8zA-12"><mxGeometry relative="1" as="geometry"><mxPoint x="290" y="210" as="targetPoint"/></mxGeometry></mxCell><mxCell id="B_8IzSe85N2JA3LNc8zA-38" style="edgeStyle=orthogonalEdgeStyle;rounded=1;orthogonalLoop=1;jettySize=auto;html=1;entryX=0.5;entryY=0;entryDx=0;entryDy=0;labelBackgroundColor=#CCCCCC;fontSize=14;fontColor=#0080FF;strokeColor=#3700CC;strokeWidth=2;fillColor=#6a00ff;" edge="1" parent="B_8IzSe85N2JA3LNc8zA-1" source="B_8IzSe85N2JA3LNc8zA-39" target="B_8IzSe85N2JA3LNc8zA-29"><mxGeometry relative="1" as="geometry"/></mxCell><mxCell id="B_8IzSe85N2JA3LNc8zA-39" value="Pre-process state" style="rounded=0;whiteSpace=wrap;html=1;labelBackgroundColor=none;sketch=0;fontSize=14;fontColor=#ffffff;fillColor=#647687;gradientDirection=radial;strokeColor=#314354;horizontal=0;" vertex="1" parent="B_8IzSe85N2JA3LNc8zA-1"><mxGeometry y="140" width="40" height="140" as="geometry"/></mxCell><mxCell id="B_8IzSe85N2JA3LNc8zA-40" style="edgeStyle=orthogonalEdgeStyle;rounded=1;orthogonalLoop=1;jettySize=auto;html=1;labelBackgroundColor=#CCCCCC;fontSize=14;fontColor=#49315E;strokeColor=#0080FF;strokeWidth=2;" edge="1" parent="B_8IzSe85N2JA3LNc8zA-1" source="B_8IzSe85N2JA3LNc8zA-41" target="B_8IzSe85N2JA3LNc8zA-34"><mxGeometry relative="1" as="geometry"/></mxCell><mxCell id="B_8IzSe85N2JA3LNc8zA-41" value="Grounded&lt;br&gt;Extension" style="rounded=0;whiteSpace=wrap;html=1;labelBackgroundColor=none;sketch=0;fontSize=14;fontColor=#ffffff;fillColor=#647687;gradientDirection=radial;strokeColor=#314354;" vertex="1" parent="B_8IzSe85N2JA3LNc8zA-1"><mxGeometry x="454" y="290" width="87" height="40" as="geometry"/></mxCell><mxCell id="B_8IzSe85N2JA3LNc8zA-42" style="edgeStyle=orthogonalEdgeStyle;rounded=1;orthogonalLoop=1;jettySize=auto;html=1;labelBackgroundColor=#CCCCCC;fontSize=14;fontColor=#49315E;strokeColor=#0080FF;strokeWidth=2;" edge="1" parent="B_8IzSe85N2JA3LNc8zA-1" source="B_8IzSe85N2JA3LNc8zA-43" target="B_8IzSe85N2JA3LNc8zA-19"><mxGeometry relative="1" as="geometry"/></mxCell><mxCell id="B_8IzSe85N2JA3LNc8zA-43" value="Grounded&lt;br&gt;Extension" style="rounded=0;whiteSpace=wrap;html=1;labelBackgroundColor=none;sketch=0;fontSize=14;fontColor=#ffffff;fillColor=#647687;gradientDirection=radial;strokeColor=#314354;" vertex="1" parent="B_8IzSe85N2JA3LNc8zA-1"><mxGeometry x="454" y="110" width="87" height="40" as="geometry"/></mxCell><mxCell id="B_8IzSe85N2JA3LNc8zA-47" value="State" style="edgeStyle=orthogonalEdgeStyle;rounded=1;orthogonalLoop=1;jettySize=auto;html=1;labelBackgroundColor=#CCCCCC;fontSize=14;fontColor=#8000FF;strokeColor=#8000FF;strokeWidth=2;entryX=0.75;entryY=1;entryDx=0;entryDy=0;" edge="1" parent="B_8IzSe85N2JA3LNc8zA-1" target="B_8IzSe85N2JA3LNc8zA-39"><mxGeometry x="-0.2632" y="-20" relative="1" as="geometry"><mxPoint x="58" y="475" as="targetPoint"/><mxPoint as="offset"/><mxPoint x="30" y="470" as="sourcePoint"/></mxGeometry></mxCell><mxCell id="B_8IzSe85N2JA3LNc8zA-50" value="" style="edgeStyle=orthogonalEdgeStyle;orthogonalLoop=1;jettySize=auto;html=1;labelBackgroundColor=#F5F5F5;fontSize=14;fontColor=#B5739D;strokeWidth=2;strokeColor=#49315E;entryX=0.25;entryY=1;entryDx=0;entryDy=0;" edge="1" parent="B_8IzSe85N2JA3LNc8zA-1" target="B_8IzSe85N2JA3LNc8zA-39"><mxGeometry x="0.0526" y="-40" relative="1" as="geometry"><mxPoint x="320" y="520" as="targetPoint"/><mxPoint x="10" y="520" as="sourcePoint"/><Array as="points"><mxPoint x="10" y="520"/></Array><mxPoint as="offset"/></mxGeometry></mxCell><mxCell id="B_8IzSe85N2JA3LNc8zA-51" value="Actions \(\in \mathbb{R}^d\)" style="edgeLabel;html=1;align=center;verticalAlign=middle;resizable=0;points=[];fontSize=14;fontColor=#49315E;labelBackgroundColor=#CCCCCC;" vertex="1" connectable="0" parent="B_8IzSe85N2JA3LNc8zA-50"><mxGeometry x="0.65" y="2" relative="1" as="geometry"><mxPoint x="52" y="178" as="offset"/></mxGeometry></mxCell></root></mxGraphModel></diagram><diagram id="23iRSUPoRavnBvh4doch" name="OldVersion"><mxGraphModel dx="1805" dy="841" grid="1" gridSize="10" guides="1" tooltips="1" connect="1" arrows="1" fold="1" page="1" pageScale="1" pageWidth="1169" pageHeight="827" math="1" shadow="0"><root><mxCell id="0"/><mxCell id="1" parent="0"/><mxCell id="E8KYmmMZgShcQxjsoKh2-1" value="Judging agent 1" style="shape=umlFrame;whiteSpace=wrap;html=1;labelBackgroundColor=none;fontSize=14;fontColor=#ffffff;fillColor=#647687;strokeColor=#314354;width=130;height=30;" parent="1" vertex="1"><mxGeometry x="60" y="50" width="560" height="140" as="geometry"/></mxCell><mxCell id="E8KYmmMZgShcQxjsoKh2-11" style="edgeStyle=none;rounded=0;orthogonalLoop=1;jettySize=auto;html=1;labelBackgroundColor=#CCCCCC;fontSize=14;fontColor=#0080FF;strokeColor=#006EAF;strokeWidth=2;fillColor=#1ba1e2;" parent="1" source="E8KYmmMZgShcQxjsoKh2-9" target="E8KYmmMZgShcQxjsoKh2-10" edge="1"><mxGeometry relative="1" as="geometry"/></mxCell><mxCell id="E8KYmmMZgShcQxjsoKh2-9" value="Argumentation graph" style="shape=umlFrame;whiteSpace=wrap;html=1;labelBackgroundColor=none;fontSize=14;fontColor=#ffffff;fillColor=#647687;strokeColor=#314354;dashed=1;width=160;height=15;" parent="1" vertex="1"><mxGeometry x="70" y="90" width="160" height="80" as="geometry"/></mxCell><mxCell id="E8KYmmMZgShcQxjsoKh2-6" style="edgeStyle=none;rounded=0;orthogonalLoop=1;jettySize=auto;html=1;labelBackgroundColor=#CCCCCC;fontSize=10;fontColor=#0080FF;strokeColor=#314354;strokeWidth=2;fillColor=#647687;" parent="1" source="E8KYmmMZgShcQxjsoKh2-3" target="E8KYmmMZgShcQxjsoKh2-4" edge="1"><mxGeometry relative="1" as="geometry"/></mxCell><mxCell id="E8KYmmMZgShcQxjsoKh2-3" value="Argument" style="ellipse;whiteSpace=wrap;html=1;labelBackgroundColor=none;fontSize=10;fontColor=#ffffff;fillColor=#647687;strokeColor=#314354;" parent="1" vertex="1"><mxGeometry x="90" y="110" width="50" height="20" as="geometry"/></mxCell><mxCell id="E8KYmmMZgShcQxjsoKh2-7" style="edgeStyle=none;rounded=0;orthogonalLoop=1;jettySize=auto;html=1;labelBackgroundColor=#CCCCCC;fontSize=10;fontColor=#0080FF;strokeColor=#314354;strokeWidth=2;fillColor=#647687;" parent="1" source="E8KYmmMZgShcQxjsoKh2-4" target="E8KYmmMZgShcQxjsoKh2-5" edge="1"><mxGeometry relative="1" as="geometry"/></mxCell><mxCell id="E8KYmmMZgShcQxjsoKh2-4" value="Argument" style="ellipse;whiteSpace=wrap;html=1;labelBackgroundColor=none;fontSize=10;fontColor=#ffffff;fillColor=#869EB5;strokeColor=#314354;gradientColor=none;gradientDirection=radial;" parent="1" vertex="1"><mxGeometry x="120" y="140" width="50" height="20" as="geometry"/></mxCell><mxCell id="E8KYmmMZgShcQxjsoKh2-8" style="edgeStyle=none;rounded=0;orthogonalLoop=1;jettySize=auto;html=1;labelBackgroundColor=#CCCCCC;fontSize=10;fontColor=#0080FF;strokeColor=#314354;strokeWidth=2;fillColor=#647687;" parent="1" source="E8KYmmMZgShcQxjsoKh2-5" target="E8KYmmMZgShcQxjsoKh2-3" edge="1"><mxGeometry relative="1" as="geometry"/></mxCell><mxCell id="E8KYmmMZgShcQxjsoKh2-5" value="Argument" style="ellipse;whiteSpace=wrap;html=1;labelBackgroundColor=none;fontSize=10;fontColor=#ffffff;fillColor=#647687;strokeColor=#314354;" parent="1" vertex="1"><mxGeometry x="160" y="110" width="50" height="20" as="geometry"/></mxCell><mxCell id="E8KYmmMZgShcQxjsoKh2-13" style="edgeStyle=none;rounded=0;orthogonalLoop=1;jettySize=auto;html=1;labelBackgroundColor=#CCCCCC;fontSize=14;fontColor=#0080FF;strokeColor=#0080FF;strokeWidth=2;" parent="1" source="E8KYmmMZgShcQxjsoKh2-10" target="E8KYmmMZgShcQxjsoKh2-12" edge="1"><mxGeometry relative="1" as="geometry"/></mxCell><mxCell id="E8KYmmMZgShcQxjsoKh2-10" value="\(\epsilon_1\)" style="rounded=0;whiteSpace=wrap;html=1;labelBackgroundColor=none;fontSize=14;fontColor=#ffffff;fillColor=#647687;strokeColor=#314354;" parent="1" vertex="1"><mxGeometry x="253" y="115" width="30" height="30" as="geometry"/></mxCell><mxCell id="E8KYmmMZgShcQxjsoKh2-55" style="edgeStyle=orthogonalEdgeStyle;rounded=1;orthogonalLoop=1;jettySize=auto;html=1;entryX=0;entryY=0.5;entryDx=0;entryDy=0;labelBackgroundColor=#CCCCCC;fontSize=14;fontColor=#49315E;strokeColor=#0080FF;strokeWidth=2;" parent="1" source="E8KYmmMZgShcQxjsoKh2-12" target="E8KYmmMZgShcQxjsoKh2-50" edge="1"><mxGeometry relative="1" as="geometry"/></mxCell><mxCell id="E8KYmmMZgShcQxjsoKh2-12" value="Filtered graph" style="shape=umlFrame;whiteSpace=wrap;html=1;labelBackgroundColor=none;fontSize=14;fontColor=#ffffff;fillColor=#647687;strokeColor=#314354;dashed=1;width=113;height=15;" parent="1" vertex="1"><mxGeometry x="307" y="90" width="123" height="80" as="geometry"/></mxCell><mxCell id="E8KYmmMZgShcQxjsoKh2-15" value="Argument" style="ellipse;whiteSpace=wrap;html=1;labelBackgroundColor=none;fontSize=10;fontColor=#ffffff;fillColor=#647687;strokeColor=#314354;" parent="1" vertex="1"><mxGeometry x="310" y="115" width="50" height="20" as="geometry"/></mxCell><mxCell id="E8KYmmMZgShcQxjsoKh2-16" style="edgeStyle=none;rounded=0;orthogonalLoop=1;jettySize=auto;html=1;labelBackgroundColor=#CCCCCC;fontSize=10;fontColor=#0080FF;strokeColor=#314354;strokeWidth=2;fillColor=#647687;" parent="1" source="E8KYmmMZgShcQxjsoKh2-17" target="E8KYmmMZgShcQxjsoKh2-15" edge="1"><mxGeometry relative="1" as="geometry"/></mxCell><mxCell id="E8KYmmMZgShcQxjsoKh2-17" value="Argument" style="ellipse;whiteSpace=wrap;html=1;labelBackgroundColor=none;fontSize=10;fontColor=#ffffff;fillColor=#647687;strokeColor=#314354;" parent="1" vertex="1"><mxGeometry x="375" y="115" width="50" height="20" as="geometry"/></mxCell><mxCell id="E8KYmmMZgShcQxjsoKh2-39" style="edgeStyle=none;rounded=0;orthogonalLoop=1;jettySize=auto;html=1;entryX=0;entryY=0.25;entryDx=0;entryDy=0;labelBackgroundColor=#CCCCCC;fontSize=14;fontColor=#0080FF;strokeColor=#0080FF;strokeWidth=2;" parent="1" source="E8KYmmMZgShcQxjsoKh2-18" target="E8KYmmMZgShcQxjsoKh2-38" edge="1"><mxGeometry relative="1" as="geometry"/></mxCell><mxCell id="E8KYmmMZgShcQxjsoKh2-18" value="\(\mathtt{J}_1\)" style="rounded=0;whiteSpace=wrap;html=1;labelBackgroundColor=none;sketch=0;fontSize=14;fontColor=#ffffff;fillColor=#647687;gradientDirection=radial;strokeColor=#314354;" parent="1" vertex="1"><mxGeometry x="560" y="110" width="40" height="40" as="geometry"/></mxCell><mxCell id="E8KYmmMZgShcQxjsoKh2-20" value="Judging agent j" style="shape=umlFrame;whiteSpace=wrap;html=1;labelBackgroundColor=none;fontSize=14;fontColor=#ffffff;fillColor=#647687;strokeColor=#314354;width=130;height=30;" parent="1" vertex="1"><mxGeometry x="60" y="230" width="560" height="140" as="geometry"/></mxCell><mxCell id="E8KYmmMZgShcQxjsoKh2-21" style="edgeStyle=none;rounded=0;orthogonalLoop=1;jettySize=auto;html=1;labelBackgroundColor=#CCCCCC;fontSize=14;fontColor=#0080FF;strokeColor=#006EAF;strokeWidth=2;fillColor=#1ba1e2;" parent="1" source="E8KYmmMZgShcQxjsoKh2-22" target="E8KYmmMZgShcQxjsoKh2-30" edge="1"><mxGeometry relative="1" as="geometry"/></mxCell><mxCell id="E8KYmmMZgShcQxjsoKh2-22" value="Argumentation graph" style="shape=umlFrame;whiteSpace=wrap;html=1;labelBackgroundColor=none;fontSize=14;fontColor=#ffffff;fillColor=#647687;strokeColor=#314354;dashed=1;width=160;height=15;" parent="1" vertex="1"><mxGeometry x="70" y="270" width="160" height="80" as="geometry"/></mxCell><mxCell id="E8KYmmMZgShcQxjsoKh2-23" style="edgeStyle=none;rounded=0;orthogonalLoop=1;jettySize=auto;html=1;labelBackgroundColor=#CCCCCC;fontSize=10;fontColor=#0080FF;strokeColor=#314354;strokeWidth=2;fillColor=#647687;" parent="1" source="E8KYmmMZgShcQxjsoKh2-24" target="E8KYmmMZgShcQxjsoKh2-26" edge="1"><mxGeometry relative="1" as="geometry"/></mxCell><mxCell id="E8KYmmMZgShcQxjsoKh2-24" value="Argument" style="ellipse;whiteSpace=wrap;html=1;labelBackgroundColor=none;fontSize=10;fontColor=#ffffff;fillColor=#869EB5;strokeColor=#314354;" parent="1" vertex="1"><mxGeometry x="90" y="290" width="50" height="20" as="geometry"/></mxCell><mxCell id="E8KYmmMZgShcQxjsoKh2-26" value="Argument" style="ellipse;whiteSpace=wrap;html=1;labelBackgroundColor=none;fontSize=10;fontColor=#ffffff;fillColor=#647687;strokeColor=#314354;gradientDirection=radial;" parent="1" vertex="1"><mxGeometry x="120" y="320" width="50" height="20" as="geometry"/></mxCell><mxCell id="E8KYmmMZgShcQxjsoKh2-37" style="edgeStyle=none;rounded=0;orthogonalLoop=1;jettySize=auto;html=1;labelBackgroundColor=#CCCCCC;fontSize=14;fontColor=#0080FF;strokeColor=#314354;strokeWidth=2;fillColor=#647687;" parent="1" source="E8KYmmMZgShcQxjsoKh2-28" target="E8KYmmMZgShcQxjsoKh2-26" edge="1"><mxGeometry relative="1" as="geometry"/></mxCell><mxCell id="E8KYmmMZgShcQxjsoKh2-28" value="Argument" style="ellipse;whiteSpace=wrap;html=1;labelBackgroundColor=none;fontSize=10;fontColor=#ffffff;fillColor=#869EB5;strokeColor=#314354;" parent="1" vertex="1"><mxGeometry x="160" y="290" width="50" height="20" as="geometry"/></mxCell><mxCell id="E8KYmmMZgShcQxjsoKh2-29" style="edgeStyle=none;rounded=0;orthogonalLoop=1;jettySize=auto;html=1;labelBackgroundColor=#CCCCCC;fontSize=14;fontColor=#0080FF;strokeColor=#0080FF;strokeWidth=2;" parent="1" source="E8KYmmMZgShcQxjsoKh2-30" target="E8KYmmMZgShcQxjsoKh2-32" edge="1"><mxGeometry relative="1" as="geometry"/></mxCell><mxCell id="E8KYmmMZgShcQxjsoKh2-30" value="\(\epsilon_j\)" style="rounded=0;whiteSpace=wrap;html=1;labelBackgroundColor=none;fontSize=14;fontColor=#ffffff;fillColor=#647687;strokeColor=#314354;" parent="1" vertex="1"><mxGeometry x="253" y="295" width="30" height="30" as="geometry"/></mxCell><mxCell id="E8KYmmMZgShcQxjsoKh2-49" style="edgeStyle=orthogonalEdgeStyle;rounded=1;orthogonalLoop=1;jettySize=auto;html=1;labelBackgroundColor=#CCCCCC;fontSize=14;fontColor=#49315E;strokeColor=#0080FF;strokeWidth=2;" parent="1" source="E8KYmmMZgShcQxjsoKh2-32" target="E8KYmmMZgShcQxjsoKh2-47" edge="1"><mxGeometry relative="1" as="geometry"/></mxCell><mxCell id="E8KYmmMZgShcQxjsoKh2-32" value="Filtered graph" style="shape=umlFrame;whiteSpace=wrap;html=1;labelBackgroundColor=none;fontSize=14;fontColor=#ffffff;fillColor=#647687;strokeColor=#314354;dashed=1;width=110;height=15;" parent="1" vertex="1"><mxGeometry x="307" y="270" width="120" height="80" as="geometry"/></mxCell><mxCell id="E8KYmmMZgShcQxjsoKh2-35" value="Argument" style="ellipse;whiteSpace=wrap;html=1;labelBackgroundColor=none;fontSize=10;fontColor=#ffffff;fillColor=#647687;strokeColor=#314354;" parent="1" vertex="1"><mxGeometry x="342" y="320" width="50" height="20" as="geometry"/></mxCell><mxCell id="E8KYmmMZgShcQxjsoKh2-40" style="edgeStyle=none;rounded=0;orthogonalLoop=1;jettySize=auto;html=1;entryX=0;entryY=0.75;entryDx=0;entryDy=0;labelBackgroundColor=#CCCCCC;fontSize=14;fontColor=#0080FF;strokeColor=#0080FF;strokeWidth=2;" parent="1" source="E8KYmmMZgShcQxjsoKh2-36" target="E8KYmmMZgShcQxjsoKh2-38" edge="1"><mxGeometry relative="1" as="geometry"/></mxCell><mxCell id="E8KYmmMZgShcQxjsoKh2-36" value="\(\mathtt{J}_j\)" style="rounded=0;whiteSpace=wrap;html=1;labelBackgroundColor=none;sketch=0;fontSize=14;fontColor=#ffffff;fillColor=#647687;gradientDirection=radial;strokeColor=#314354;" parent="1" vertex="1"><mxGeometry x="560" y="290" width="40" height="40" as="geometry"/></mxCell><mxCell id="E8KYmmMZgShcQxjsoKh2-41" value="Reward &lt;br&gt;\(r_l \in \mathbb{R}\)" style="edgeStyle=none;rounded=0;orthogonalLoop=1;jettySize=auto;html=1;labelBackgroundColor=#CCCCCC;fontSize=14;fontColor=#0080FF;strokeColor=#0080FF;strokeWidth=2;" parent="1" source="E8KYmmMZgShcQxjsoKh2-38" target="E8KYmmMZgShcQxjsoKh2-82" edge="1"><mxGeometry y="30" relative="1" as="geometry"><mxPoint x="770" y="210" as="targetPoint"/><mxPoint as="offset"/></mxGeometry></mxCell><mxCell id="E8KYmmMZgShcQxjsoKh2-38" value="\(\mathtt{g}_{agr}\)" style="rounded=0;whiteSpace=wrap;html=1;labelBackgroundColor=none;sketch=0;fontSize=14;fontColor=#ffffff;fillColor=#647687;gradientDirection=radial;strokeColor=#314354;" parent="1" vertex="1"><mxGeometry x="640" y="180" width="70" height="60" as="geometry"/></mxCell><mxCell id="E8KYmmMZgShcQxjsoKh2-43" style="edgeStyle=orthogonalEdgeStyle;rounded=1;orthogonalLoop=1;jettySize=auto;html=1;exitX=1;exitY=0.5;exitDx=0;exitDy=0;labelBackgroundColor=#CCCCCC;fontSize=14;fontColor=#0080FF;strokeColor=#3700CC;strokeWidth=2;fillColor=#6a00ff;entryX=0.5;entryY=1;entryDx=0;entryDy=0;" parent="1" source="E8KYmmMZgShcQxjsoKh2-42" target="E8KYmmMZgShcQxjsoKh2-10" edge="1"><mxGeometry relative="1" as="geometry"><mxPoint x="290" y="210" as="targetPoint"/></mxGeometry></mxCell><mxCell id="E8KYmmMZgShcQxjsoKh2-44" style="edgeStyle=orthogonalEdgeStyle;rounded=1;orthogonalLoop=1;jettySize=auto;html=1;entryX=0.5;entryY=0;entryDx=0;entryDy=0;labelBackgroundColor=#CCCCCC;fontSize=14;fontColor=#0080FF;strokeColor=#3700CC;strokeWidth=2;fillColor=#6a00ff;" parent="1" source="E8KYmmMZgShcQxjsoKh2-42" target="E8KYmmMZgShcQxjsoKh2-30" edge="1"><mxGeometry relative="1" as="geometry"/></mxCell><mxCell id="E8KYmmMZgShcQxjsoKh2-42" value="Pre-process state" style="rounded=0;whiteSpace=wrap;html=1;labelBackgroundColor=none;sketch=0;fontSize=14;fontColor=#ffffff;fillColor=#647687;gradientDirection=radial;strokeColor=#314354;horizontal=0;" parent="1" vertex="1"><mxGeometry y="140" width="40" height="140" as="geometry"/></mxCell><mxCell id="E8KYmmMZgShcQxjsoKh2-48" style="edgeStyle=orthogonalEdgeStyle;rounded=1;orthogonalLoop=1;jettySize=auto;html=1;labelBackgroundColor=#CCCCCC;fontSize=14;fontColor=#49315E;strokeColor=#0080FF;strokeWidth=2;" parent="1" source="E8KYmmMZgShcQxjsoKh2-47" target="E8KYmmMZgShcQxjsoKh2-36" edge="1"><mxGeometry relative="1" as="geometry"/></mxCell><mxCell id="E8KYmmMZgShcQxjsoKh2-47" value="Grounded&lt;br&gt;Extension" style="rounded=0;whiteSpace=wrap;html=1;labelBackgroundColor=none;sketch=0;fontSize=14;fontColor=#ffffff;fillColor=#647687;gradientDirection=radial;strokeColor=#314354;" parent="1" vertex="1"><mxGeometry x="454" y="290" width="87" height="40" as="geometry"/></mxCell><mxCell id="E8KYmmMZgShcQxjsoKh2-54" style="edgeStyle=orthogonalEdgeStyle;rounded=1;orthogonalLoop=1;jettySize=auto;html=1;labelBackgroundColor=#CCCCCC;fontSize=14;fontColor=#49315E;strokeColor=#0080FF;strokeWidth=2;" parent="1" source="E8KYmmMZgShcQxjsoKh2-50" target="E8KYmmMZgShcQxjsoKh2-18" edge="1"><mxGeometry relative="1" as="geometry"/></mxCell><mxCell id="E8KYmmMZgShcQxjsoKh2-50" value="Grounded&lt;br&gt;Extension" style="rounded=0;whiteSpace=wrap;html=1;labelBackgroundColor=none;sketch=0;fontSize=14;fontColor=#ffffff;fillColor=#647687;gradientDirection=radial;strokeColor=#314354;" parent="1" vertex="1"><mxGeometry x="454" y="110" width="87" height="40" as="geometry"/></mxCell><mxCell id="E8KYmmMZgShcQxjsoKh2-82" value="Learning Agent" style="shape=umlFrame;whiteSpace=wrap;html=1;fillColor=#76608a;fontColor=#ffffff;strokeColor=#B5739D;rounded=0;fontSize=14;width=130;height=30;strokeWidth=1;" parent="1" vertex="1"><mxGeometry x="810" y="175" width="270" height="70" as="geometry"/></mxCell><mxCell id="E8KYmmMZgShcQxjsoKh2-86" value="&lt;font color=&quot;#49315e&quot;&gt;Actions&lt;br&gt;\(\in \mathbb{R}^d\)&lt;/font&gt;" style="edgeStyle=orthogonalEdgeStyle;orthogonalLoop=1;jettySize=auto;html=1;labelBackgroundColor=#CCCCCC;fontSize=14;fontColor=#B5739D;strokeWidth=2;entryX=1;entryY=0.5;entryDx=0;entryDy=0;strokeColor=#49315E;" parent="1" source="E8KYmmMZgShcQxjsoKh2-82" target="E8KYmmMZgShcQxjsoKh2-88" edge="1"><mxGeometry x="-0.1656" y="-40" relative="1" as="geometry"><mxPoint x="1440" y="660" as="targetPoint"/><Array as="points"><mxPoint x="1100" y="210"/><mxPoint x="1100" y="470"/><mxPoint x="1000" y="470"/></Array><mxPoint as="offset"/><mxPoint x="1360" y="210" as="sourcePoint"/></mxGeometry></mxCell><mxCell id="E8KYmmMZgShcQxjsoKh2-87" value="Environment" style="shape=umlFrame;whiteSpace=wrap;html=1;fillColor=#76608a;fontColor=#ffffff;strokeColor=#432D57;width=90;height=30;rounded=0;fontSize=14;" parent="1" vertex="1"><mxGeometry x="800" y="414" width="270" height="90" as="geometry"/></mxCell><mxCell id="E8KYmmMZgShcQxjsoKh2-110" value="State" style="edgeStyle=orthogonalEdgeStyle;rounded=1;orthogonalLoop=1;jettySize=auto;html=1;exitX=0;exitY=0.75;exitDx=0;exitDy=0;labelBackgroundColor=#CCCCCC;fontSize=14;fontColor=#8000FF;strokeColor=#8000FF;strokeWidth=2;entryX=0.75;entryY=1;entryDx=0;entryDy=0;" parent="1" source="E8KYmmMZgShcQxjsoKh2-88" target="E8KYmmMZgShcQxjsoKh2-42" edge="1"><mxGeometry x="0.5307" y="-15" relative="1" as="geometry"><mxPoint x="58" y="475" as="targetPoint"/><mxPoint as="offset"/></mxGeometry></mxCell><mxCell id="E8KYmmMZgShcQxjsoKh2-88" value="Compute next state" style="rounded=0;whiteSpace=wrap;html=1;fillColor=#76608a;fontColor=#ffffff;strokeColor=#432D57;fontSize=14;" parent="1" vertex="1"><mxGeometry x="880" y="449" width="120" height="35" as="geometry"/></mxCell><mxCell id="E8KYmmMZgShcQxjsoKh2-91" value="&lt;font color=&quot;#8000ff&quot;&gt;Observations&lt;br&gt;\(\in \mathbb{R}^g\)&lt;/font&gt;" style="endArrow=classic;html=1;strokeWidth=2;fillColor=#6a00ff;strokeColor=#8000FF;edgeStyle=orthogonalEdgeStyle;fontSize=14;rounded=1;fontColor=#B5739D;labelBackgroundColor=#CCCCCC;exitX=0;exitY=0.25;exitDx=0;exitDy=0;" parent="1" source="E8KYmmMZgShcQxjsoKh2-88" target="E8KYmmMZgShcQxjsoKh2-82" edge="1"><mxGeometry x="0.1721" y="-50" width="50" height="50" relative="1" as="geometry"><mxPoint x="720" y="480" as="sourcePoint"/><mxPoint x="1120" y="210" as="targetPoint"/><Array as="points"><mxPoint x="880" y="460"/><mxPoint x="770" y="460"/><mxPoint x="770" y="230"/></Array><mxPoint y="1" as="offset"/></mxGeometry></mxCell><mxCell id="E8KYmmMZgShcQxjsoKh2-93" value="" style="edgeStyle=orthogonalEdgeStyle;orthogonalLoop=1;jettySize=auto;html=1;labelBackgroundColor=#F5F5F5;fontSize=14;fontColor=#B5739D;strokeWidth=2;strokeColor=#49315E;entryX=0.25;entryY=1;entryDx=0;entryDy=0;" parent="1" source="E8KYmmMZgShcQxjsoKh2-82" target="E8KYmmMZgShcQxjsoKh2-42" edge="1"><mxGeometry x="0.0526" y="-40" relative="1" as="geometry"><mxPoint x="320" y="520" as="targetPoint"/><mxPoint x="1310" y="385" as="sourcePoint"/><Array as="points"><mxPoint x="1100" y="210"/><mxPoint x="1100" y="520"/><mxPoint x="10" y="520"/></Array><mxPoint as="offset"/></mxGeometry></mxCell><mxCell id="E8KYmmMZgShcQxjsoKh2-109" value="Actions \(\in \mathbb{R}^d\)" style="edgeLabel;html=1;align=center;verticalAlign=middle;resizable=0;points=[];fontSize=14;fontColor=#49315E;labelBackgroundColor=#CCCCCC;" parent="E8KYmmMZgShcQxjsoKh2-93" vertex="1" connectable="0"><mxGeometry x="0.65" y="2" relative="1" as="geometry"><mxPoint x="10" y="-18" as="offset"/></mxGeometry></mxCell></root></mxGraphModel></diagram></mxfile>